<?xml version="1.0" encoding="utf-8"?>
<!-- Uploaded to: SVG Repo, www.svgrepo.com, Generator: SVG Repo Mixer Tools -->
<svg width="800px" height="800px" viewBox="0 0 1024 1024" class="icon"  version="1.1" xmlns="http://www.w3.org/2000/svg"><path d="M362.41 879.648c-95.417 0-192.465-27.316-288.485-81.263-8.064-4.527-11.83-14.15-8.98-22.977 2.855-8.788 11.185-14.191 20.773-13.355 72.17 8.408 148.407-8.75 205.511-42.302-66.043-15.525-119.417-58.397-147.571-120.676a19.454 19.454 0 0 1 3.119-20.884c4.983-5.746 13.011-8.03 20.317-5.781a142.417 142.417 0 0 0 25.033 5.364c-50.106-29.903-103.784-87.197-103.784-172.987 0-7.531 4.335-14.379 11.11-17.573a19.353 19.353 0 0 1 20.654 2.47c6.241 5.099 12.938 9.362 19.821 12.708-14.339-19.44-26.781-43.562-33.857-70.8-12.972-49.989-5.478-100.585 21.683-146.351 3.233-5.516 9.018-9.054 15.372-9.514 6.238-0.681 12.552 2.249 16.584 7.27 57.332 71.633 159.212 158.183 323.066 174.01-3.003-51.854 12.556-136.841 84.154-178.653 87.462-51.13 173.248-44.434 245.606 18.983 32.263-7.187 83.202-29.291 93.741-36.673a19.516 19.516 0 0 1 22.33-0.04c6.696 4.683 9.779 13.052 7.686 20.963-4.87 18.375-15.864 38.765-29.6 57.027 10.881-3.233 20.012-6.505 24.882-9.014 7.837-3.997 17.308-2.322 23.318 4.146 5.937 6.505 6.775 16.131 2.097 23.587-22.942 36.218-59.959 69.963-84.727 88.222 9.931 121.587-39.26 255.425-132.998 360.459-99.976 111.966-233.776 173.634-376.781 173.634h-0.074z" fill="#2577FF" /><path d="M773.705 209.378c11.484-2.559 25.333-7.039 38.885-12.041-50.557-43.083-107.542-58.134-158.074-50.884 36.738 5.548 86.781 34.522 119.189 62.925zM484.047 365.248c-0.152-2.646-0.222-5.432-0.275-8.24-133.027-2.397-266.805-97.597-324.061-174.009-3.863-5.155-10.347-7.952-16.584-7.271-6.354 0.46-12.138 3.998-15.371 9.514-2.83 4.767-5.318 9.616-7.72 14.483 86.352 148.04 212.727 150.909 364.011 165.523zM954.896 233.745c-6.012-6.466-15.483-8.141-23.32-4.144-4.87 2.509-14.002 5.781-24.882 9.014 13.736-18.262 24.73-38.652 29.6-57.027a19.502 19.502 0 0 0-7.686-20.963 19.52 19.52 0 0 0-22.33 0.039c-3.711 2.6-12.577 7.061-23.723 12.014 0.607 2.903 0.772 5.914-0.021 8.911-4.87 18.375-15.864 38.765-29.599 57.027 10.881-3.233 20.012-6.505 24.882-9.014 7.837-3.997 17.308-2.322 23.32 4.144 5.936 6.507 6.774 16.133 2.095 23.59-22.942 36.216-59.959 69.961-84.726 88.22 9.929 121.587-39.261 255.425-132.997 360.461C592.268 810.433 469.603 871.055 337.5 878.76c8.309 0.411 16.624 0.888 24.91 0.888h0.073c143.006 0 276.806-61.669 376.784-173.633 93.736-105.035 142.927-238.874 132.997-360.461 24.767-18.259 61.784-52.004 84.726-88.22 4.68-7.457 3.842-17.083-2.094-23.589z" fill="" /></svg>